<svg width="97" height="60" viewBox="0 0 97 60" fill="none" xmlns="http://www.w3.org/2000/svg">
<path d="M75.1958 36.455L74.958 38.3443V38.9916C74.958 41.0878 75.0021 42.4751 75.0901 43.1532C75.187 43.8314 75.2839 44.4392 75.3808 44.9764C75.4777 45.5137 75.601 45.9717 75.7507 46.3504C75.9093 46.7292 76.0942 47.0859 76.3056 47.4206C76.7284 48.09 77.3141 48.4246 78.0627 48.4246C78.371 48.4246 78.7541 48.2661 79.2121 47.949C79.6701 47.6231 80.018 47.4602 80.2559 47.4602C80.4937 47.4602 80.7491 47.5967 81.0221 47.8698C81.0221 48.777 80.5069 49.4243 79.4764 49.8119C78.9655 49.9968 78.4106 50.0893 77.8117 50.0893C77.2128 50.0893 76.7019 49.966 76.2792 49.7194C75.8564 49.4816 75.5041 49.1733 75.2223 48.7946C74.9404 48.407 74.6938 47.9138 74.4824 47.3149C74.271 46.716 74.1037 46.1214 73.9804 45.5313C73.8747 44.9324 73.7866 44.2454 73.7161 43.4703C73.6105 42.1668 73.5532 40.7399 73.5444 39.1898L73.5708 35.953C73.5708 34.9225 73.6325 34.0901 73.7558 33.456C73.7029 33.1653 73.6765 32.8835 73.6765 32.6104C73.6765 31.5007 74.0905 30.6199 74.9184 29.9681C75.7463 29.3076 76.768 28.9773 77.9835 28.9773C78.415 28.9773 78.8378 29.1006 79.2518 29.3472C79.6657 29.585 79.8727 29.9021 79.8727 30.2984C79.8727 30.4922 79.7979 30.6419 79.6481 30.7476C79.4984 30.8533 79.243 30.9062 78.8819 30.9062C78.5295 30.9062 78.2873 30.7961 78.1552 30.5759V30.5891H77.7853V30.523C76.7372 30.523 76.0238 30.8489 75.645 31.5007C75.2927 32.0996 75.1166 33.1301 75.1166 34.5922L75.1958 36.455ZM85.699 33.9448L85.6462 37.4327L85.884 43.6553L86.1086 48.5171C86.1086 49.3979 85.8487 49.8383 85.3291 49.8383C85.0296 49.8383 84.8094 49.6974 84.6685 49.4155C84.5276 49.1337 84.4571 48.821 84.4571 48.4775L84.6685 44.1573C84.6685 43.2237 84.6068 41.8189 84.4835 39.9428C84.3602 38.0668 84.2986 36.662 84.2986 35.7284L84.3382 33.3635C84.3382 32.0688 84.2545 31.2276 84.0872 30.8401L82.6207 30.9854C82.3917 30.9854 82.1847 30.9194 81.9998 30.7873C81.8236 30.6463 81.7355 30.4702 81.7355 30.2588C81.7355 30.0386 81.9513 29.8536 82.3829 29.7039C82.8233 29.5454 83.3518 29.4309 83.9683 29.3604C85.0516 29.2371 85.9632 29.1754 86.7031 29.1754C86.9233 29.1754 87.1214 29.2503 87.2976 29.4C87.4826 29.541 87.575 29.7215 87.575 29.9417C87.575 30.1619 87.4958 30.3381 87.3372 30.4702C87.1787 30.5935 86.9849 30.6551 86.7559 30.6551L85.7915 30.6023C85.6682 30.6023 85.5757 30.6067 85.514 30.6155C85.6373 31.6548 85.699 32.7646 85.699 33.9448ZM94.128 49.6401C93.5731 49.6401 93.2956 49.4067 93.2956 48.9399V45.4124C93.0402 45.2363 92.5778 45.0865 91.9084 44.9632C91.2478 44.8399 90.6577 44.7607 90.1381 44.7254C89.9531 45.0425 89.799 45.5005 89.6757 46.0994C89.5612 46.6983 89.4379 47.3017 89.3057 47.9094C89.1824 48.5171 89.0151 48.9971 88.8037 49.3495C88.0991 49.3495 87.7028 49.1689 87.6147 48.8078C87.8613 48.4555 88.262 46.6543 88.8169 43.4043C89.3718 40.1542 89.8254 37.6132 90.1777 35.7812C90.5388 33.9404 90.9264 32.3947 91.3403 31.144C91.7543 29.8933 92.1506 29.2679 92.5294 29.2679C92.9081 29.2679 93.1987 29.3472 93.4013 29.5057C93.4013 30.1487 93.5775 31.8882 93.9298 34.7243C94.2821 37.5604 94.4582 39.3968 94.4582 40.2335C94.4582 41.0614 94.5507 42.4442 94.7357 44.3819C94.9295 46.3108 95.0263 47.7597 95.0263 48.7285C95.0263 49.3362 94.7269 49.6401 94.128 49.6401ZM92.9918 40.8148C92.8332 39.2118 92.6879 37.6881 92.5558 36.2436C92.4325 34.7903 92.3708 33.914 92.3708 33.6145C92.3708 33.3063 92.3752 33.1301 92.384 33.0861C92.1022 33.3767 91.6926 34.9929 91.1554 37.9347C90.6269 40.8765 90.3451 42.7393 90.3098 43.5232C91.0585 43.7257 91.6838 43.827 92.1859 43.827C92.6967 43.827 93.0578 43.8006 93.2692 43.7478C93.2428 43.3867 93.1503 42.409 92.9918 40.8148Z" fill="black"/>
<path d="M61.0332 39.0601C37.7809 39.0601 25.9433 34.2791 16.4155 29.6404C12.6662 27.815 6.38382 23.5348 3.43033 20.4448" stroke="black" stroke-width="2.11384" stroke-linecap="round"/>
<path d="M13.348 19.0342C9.94542 19.8269 6.75358 20.3149 3.32768 19.8197C2.74191 19.735 0.479008 18.9542 1.24104 20.1098C3.72722 23.8802 5.83732 27.8495 8.47295 31.5342" stroke="black" stroke-width="2.11384" stroke-linecap="round"/>
</svg>
