<svg width="56" height="55" viewBox="0 0 56 55" fill="none" xmlns="http://www.w3.org/2000/svg">
<circle cx="28" cy="27.5" r="22.3438" stroke="#3F3F46" stroke-width="1.14584"/>
<path d="M22.2492 18.3333C23.0415 18.3333 23.7735 18.3936 24.4452 18.5747C25.1168 18.6955 25.6677 18.9445 26.1582 19.2464C26.6487 19.5482 27.0109 19.9784 27.26 20.5292C27.5014 21.0801 27.6297 21.7518 27.6297 22.4838C27.6297 23.3365 27.4486 24.0685 27.0185 24.6194C26.6487 25.1703 26.045 25.6608 25.3054 26.023C26.3468 26.3249 27.1392 26.8758 27.6222 27.6077C28.1051 28.3397 28.4145 29.2529 28.4145 30.2943C28.4145 31.147 28.2334 31.879 27.924 32.4903C27.6222 33.1015 27.1317 33.6524 26.5808 34.0146C26.0299 34.3844 25.3583 34.6863 24.6263 34.8674C23.8943 35.0485 23.1623 35.1692 22.4303 35.1692L14.25 35.1843V18.3333H22.2492ZM21.7586 25.1703C22.4303 25.1703 22.9812 24.9892 23.4038 24.6798C23.8264 24.3704 24.015 23.827 24.015 23.1554C24.015 22.7856 23.9546 22.4234 23.8339 22.1819C23.7132 21.9404 23.532 21.7518 23.283 21.5706C23.0415 21.4499 22.7925 21.3292 22.4906 21.2688C22.1888 21.2084 21.8794 21.2084 21.5172 21.2084H17.9779V25.1778C17.9779 25.1703 21.7586 25.1703 21.7586 25.1703ZM21.9398 32.3771C22.3095 32.3771 22.6718 32.3167 22.9812 32.2563C23.283 32.1959 23.5924 32.0752 23.8339 31.8865C24.0754 31.6979 24.264 31.5168 24.4452 31.2149C24.5659 30.9131 24.6866 30.5433 24.6866 30.1131C24.6866 29.2604 24.4452 28.6491 23.9546 28.219C23.4641 27.8492 22.7925 27.6681 22.0001 27.6681H17.9779V32.3695H21.9398V32.3771Z" fill="#3F3F46"/>
<path d="M33.7273 32.3169C34.2178 32.8074 34.9498 33.0489 35.9233 33.0489C36.5949 33.0489 37.2061 32.8678 37.6967 32.5584C38.1872 32.1886 38.489 31.8264 38.6098 31.4566H41.5981C41.1076 32.9206 40.3756 33.962 39.4021 34.6336C38.4287 35.2449 37.2665 35.6071 35.8629 35.6071C34.8894 35.6071 34.0291 35.426 33.2367 35.1166C32.4444 34.8148 31.8331 34.3846 31.2822 33.7734C30.7313 33.2225 30.3088 32.5508 30.0597 31.7585C29.7579 30.9661 29.6296 30.1134 29.6296 29.1323C29.6296 28.2192 29.7503 27.3589 30.0597 26.5666C30.3691 25.7742 30.7917 25.1026 31.3426 24.4913C31.8935 23.9404 32.5651 23.4499 33.2971 23.1481C34.0895 22.8462 34.8819 22.6575 35.8629 22.6575C36.9043 22.6575 37.8174 22.8387 38.6098 23.2688C39.4021 23.6989 40.0134 24.1819 40.5039 24.9139C40.9944 25.5855 41.3566 26.3779 41.6057 27.2306C41.7264 28.0834 41.7868 28.9437 41.7264 29.9172H32.8745C32.8745 30.9133 33.2367 31.8264 33.7273 32.3169ZM37.5759 25.9025C37.1458 25.4723 36.4741 25.2309 35.6818 25.2309C35.1309 25.2309 34.7083 25.3516 34.3385 25.5327C33.9687 25.7138 33.7273 25.9629 33.4858 26.2043C33.2443 26.4458 33.116 26.7552 33.0556 27.0571C32.9953 27.3589 32.9349 27.608 32.9349 27.8494H38.4287C38.3079 26.9439 37.9985 26.3326 37.5759 25.9025ZM32.2029 19.4956H39.0399V21.1407H32.2029V19.4956Z" fill="#3F3F46"/>
</svg>
