<svg width="126" height="99" viewBox="0 0 126 99" fill="none" xmlns="http://www.w3.org/2000/svg">
<path d="M13.6981 29.5094L12.61 29.5177C11.9811 29.4596 11.6907 29.17 11.7388 28.6489C11.7803 28.1997 12.4002 27.9625 13.5986 27.9372C13.8347 27.9318 14.092 27.942 14.3705 27.9677C14.649 27.9934 14.8738 28.1592 15.045 28.4649C15.2161 28.7707 15.2792 29.1661 15.2344 29.6513C15.1905 30.1274 15.2081 30.9174 15.2875 32.0211C15.3758 33.1256 15.4025 33.8666 15.3677 34.2439C15.3054 34.9177 15.0452 35.2335 14.587 35.1912C14.1378 35.1497 13.8547 34.9288 13.7376 34.5283L13.7401 34.5014C13.6281 34.5363 13.4164 34.621 13.105 34.7553C12.5198 35.0094 11.9531 35.1111 11.4051 35.0605C11.0098 35.024 10.6219 34.9067 10.2415 34.7084C9.4277 34.298 8.83267 33.6768 8.45644 32.8447C8.04843 31.9643 7.80331 31.1353 7.72108 30.3575C7.63886 29.5797 7.59111 28.9682 7.57785 28.523C7.55644 28.068 7.55431 27.5513 7.57146 26.973C7.59373 26.2411 7.65214 25.363 7.74671 24.3388L7.92112 22.3026C8.08536 20.5237 8.26155 19.2533 8.44969 18.4914C8.63782 17.7295 8.8131 17.1069 8.97552 16.6236C9.14693 16.141 9.33091 15.7186 9.52747 15.3562C9.72486 14.9848 9.95694 14.6302 10.2237 14.2923C10.4913 13.9455 10.7886 13.6695 11.1157 13.4641C11.8197 13.0035 12.5935 12.8167 13.4372 12.9037C14.2817 12.9817 14.6799 13.2812 14.6318 13.8023C14.6136 14 14.5272 14.1505 14.3727 14.2541C14.2181 14.3576 14.042 14.4002 13.8444 14.382L13.0617 14.1738C12.3691 14.1189 11.7869 14.4865 11.3153 15.2766C10.8093 16.145 10.4601 16.9826 10.2678 17.7894C10.0755 18.5962 9.9292 19.2487 9.82884 19.7469C9.71134 20.2344 9.61457 20.7917 9.53854 21.419C9.42214 22.2872 9.3282 23.1574 9.25672 24.0297L9.08522 25.74C8.92264 27.501 8.88329 28.7613 8.96717 29.5211C9.06004 30.2818 9.1715 30.8901 9.30156 31.3461C9.42181 31.8102 9.58545 32.1969 9.7925 32.5059C10.5023 33.1604 11.1413 33.5501 11.7097 33.6751C12.5273 33.7506 13.2413 33.4269 13.8517 32.704C13.9757 31.0664 13.9245 30.0015 13.6981 29.5094ZM20.8541 25.0189L20.1693 24.9285C19.8997 24.9036 19.7048 24.9536 19.5846 25.0784L18.7982 33.5956C19.7465 33.6288 20.2611 33.6492 20.342 33.6566C21.3932 33.7537 21.8964 34.0448 21.8516 34.5299L21.8429 34.6243C21.6939 34.8642 21.4604 35.0375 21.1425 35.1441C20.8246 35.2506 20.548 35.3021 20.3127 35.2985C20.0775 35.2949 19.7757 35.2761 19.4073 35.2421L18.5448 35.1625C17.862 35.0994 17.4522 34.9257 17.3153 34.6412C17.2551 34.5088 17.2345 34.3392 17.2536 34.1326L18.7342 18.0954C18.7633 17.781 18.7435 17.308 18.675 16.6764C18.6064 16.0449 18.5871 15.5674 18.617 15.244L18.6257 15.1496C18.9776 14.6747 19.2365 14.3724 19.4026 14.2428L21.4734 14.1893C21.7519 14.215 22.0226 14.3261 22.2853 14.5225C22.5579 14.7108 22.6817 14.9397 22.6568 15.2092C22.6062 15.7573 22.1632 15.9927 21.3276 15.9156L20.535 15.8152C20.4002 15.8028 20.301 15.7981 20.2372 15.8013L20.0323 20.3763C19.9983 20.7447 19.9261 21.2817 19.8156 21.9873C19.706 22.6839 19.6362 23.194 19.6064 23.5174C19.7069 23.5086 19.8445 23.4896 20.0194 23.4604C20.4059 23.3964 20.7024 23.374 20.9091 23.393C21.1247 23.4129 21.3063 23.5067 21.4539 23.6744C21.6105 23.8429 21.6789 24.035 21.659 24.2506C21.6391 24.4662 21.5538 24.6531 21.4033 24.8114C21.2528 24.9697 21.0697 25.0388 20.8541 25.0189ZM24.3826 20.9547L25.0391 15.9049L25.0553 15.7297C25.1399 14.8133 25.3843 14.3737 25.7886 14.411C26.157 14.4451 26.5723 15.3442 27.0346 17.1085C27.8805 20.3126 28.7647 25.5545 29.6874 32.8341L29.7019 32.9714L30.6981 23.359L31.4521 15.1922C31.6022 14.7439 31.9244 14.5426 32.4185 14.5882C32.9126 14.6339 33.1265 15.0161 33.0602 15.7348L33.0452 15.8965C32.9167 16.1112 32.8379 16.3757 32.8089 16.6902L31.6918 26.8758L30.9128 35.3122C30.8871 35.5907 30.7855 35.8577 30.6078 36.1131C30.4302 36.3685 30.2291 36.4859 30.0045 36.4652C29.6182 36.4295 29.0381 34.4686 28.2643 30.5825C27.4913 26.6873 26.7579 22.5105 26.0641 18.0518L25.2279 27.1081C25.1466 27.9886 25.0884 29.3061 25.0533 31.0607C25.0271 32.8161 24.9734 34.1341 24.8921 35.0145C24.8763 35.1853 24.7598 35.3195 24.5423 35.4172C24.3257 35.5059 24.0557 35.5354 23.7323 35.5055C23.4178 35.4765 23.2739 35.3182 23.3004 35.0307L23.6181 33.0621C23.706 32.1097 23.7903 30.559 23.8709 28.4099C23.9515 26.2609 24.0138 24.9482 24.0578 24.4721L24.3826 20.9547ZM36.9721 26.5071L36.2873 26.4167C36.0178 26.3918 35.8229 26.4418 35.7026 26.5666L34.9162 35.0838C35.8646 35.117 36.3792 35.1373 36.46 35.1448C37.5112 35.2418 38.0144 35.5329 37.9696 36.0181L37.9609 36.1124C37.8119 36.3524 37.5784 36.5256 37.2605 36.6322C36.9426 36.7388 36.666 36.7902 36.4308 36.7867C36.1955 36.7831 35.8937 36.7642 35.5254 36.7302L34.6629 36.6506C33.98 36.5876 33.5702 36.4138 33.4334 36.1293C33.3731 35.9969 33.3525 35.8274 33.3716 35.6208L34.8523 19.5836C34.8813 19.2691 34.8616 18.7961 34.793 18.1646C34.7245 17.533 34.7051 17.0556 34.735 16.7321L34.7437 16.6378C35.0956 16.1629 35.3546 15.8606 35.5206 15.7309L37.5914 15.6775C37.87 15.7032 38.1406 15.8143 38.4034 16.0107C38.6759 16.1989 38.7998 16.4278 38.7749 16.6974C38.7243 17.2454 38.2812 17.4809 37.4457 17.4037L36.653 17.3034C36.5183 17.2909 36.419 17.2863 36.3553 17.2895L36.1504 21.8645C36.1163 22.2328 36.0441 22.7698 35.9337 23.4754C35.824 24.1721 35.7543 24.6821 35.7244 25.0056C35.8249 24.9967 35.9626 24.9777 36.1374 24.9485C36.5239 24.8846 36.8205 24.8621 37.0271 24.8812C37.2427 24.9011 37.4244 24.9949 37.572 25.1625C37.7286 25.331 37.7969 25.5231 37.777 25.7387C37.7571 25.9544 37.6719 26.1413 37.5214 26.2996C37.3708 26.4578 37.1878 26.527 36.9721 26.5071ZM39.3884 36.1083L40.9906 19.9328L41.3041 16.5367C41.324 16.3211 41.3831 16.1725 41.4812 16.091C41.5794 16.0094 41.8171 15.9861 42.1944 16.0209C42.5808 16.0566 42.9584 16.1866 43.3273 16.4109C43.706 16.6271 44.016 16.9004 44.2574 17.2307C44.4881 17.5782 44.6795 17.9583 44.8317 18.3711C45.1205 19.1679 45.2235 20.0156 45.1405 20.914C45.0576 21.8125 44.738 22.8204 44.1818 23.938C44.1163 24.0588 43.984 24.3139 43.7849 24.7032C43.5859 25.0926 43.4696 25.322 43.436 25.3914C43.3189 26.7578 43.5009 28.5642 43.9822 30.8104C44.1478 31.5687 44.3869 32.6102 44.6995 33.9347C45.0129 35.2503 45.2078 36.0838 45.2841 36.4352L45.2779 36.5026C45.2207 37.1225 45.1156 37.4752 44.9627 37.5608C44.809 37.6553 44.6513 37.6951 44.4896 37.6802C44.1482 37.6487 43.8386 37.3709 43.5608 36.8469L43.5695 36.7526C43.6339 35.0732 43.2924 32.491 42.545 29.006C42.2025 27.4159 41.9713 26.2392 41.8515 25.4761L40.8474 36.3518C40.8217 36.6303 40.7524 36.8413 40.6394 36.9849C40.5265 37.1286 40.3398 37.1883 40.0792 37.1643C39.8187 37.1402 39.6276 37.0501 39.5061 36.8939C39.3945 36.7296 39.3486 36.5396 39.3685 36.3239L39.3884 36.1083ZM42.657 17.3412L41.9886 22.9608C41.9364 23.5268 41.9064 23.9499 41.8986 24.23C42.2404 23.9626 42.5832 23.6363 42.9268 23.2512L43.5783 20.9057C43.6169 20.7824 43.6436 20.6399 43.6585 20.4782C43.6992 20.0379 43.6587 19.4951 43.5371 18.8496C43.3651 17.9639 43.0718 17.4611 42.657 17.3412ZM51.4985 18.443L51.0145 18.3847C50.8349 18.3681 50.6964 18.3961 50.5991 18.4686C50.5116 18.5331 50.4574 18.6776 50.4367 18.9022C50.2708 20.6991 50.1347 23.4003 50.0283 27.0058C49.9219 30.6113 49.7858 33.3125 49.6199 35.1094L49.5216 36.174C49.7128 36.1645 49.9027 36.1685 50.0913 36.1859C50.855 36.2564 51.207 36.6151 51.1473 37.262L51.1323 37.4237L50.4015 37.8319L48.522 37.7263C46.9318 37.5795 46.1619 37.2321 46.2125 36.684C46.2532 36.2438 46.552 36.0494 47.1091 36.1008L47.6848 36.1947C47.9544 36.2196 48.109 36.0164 48.1489 35.5852C48.2799 34.1656 48.3907 32.033 48.4813 29.1871C48.5728 26.3323 48.684 24.1951 48.8151 22.7755L49.129 19.9639C49.1838 19.3709 49.2086 18.8567 49.2035 18.4213C48.9534 18.4798 48.7341 18.5003 48.5454 18.4829C48.1142 18.4431 47.9189 18.2031 47.9595 17.7628C47.9802 17.5382 48.1373 17.3579 48.4308 17.2219C48.7251 17.0769 49.0822 16.9876 49.5021 16.9538C50.2872 16.8904 50.8639 16.8757 51.2323 16.9097C51.6096 16.9446 51.8721 17.0458 52.0197 17.2135C52.1682 17.3722 52.2329 17.5548 52.2138 17.7615C52.1955 17.9591 52.1165 18.1285 51.9766 18.2696C51.8465 18.4026 51.6871 18.4604 51.4985 18.443ZM55.0846 24.7951L54.6641 26.6999L54.6031 27.3602C54.4057 29.4985 54.3199 30.9177 54.3459 31.6178C54.3809 32.3187 54.4225 32.9478 54.4707 33.5049C54.5189 34.0621 54.6016 34.5409 54.7186 34.9413C54.8447 35.3426 54.9998 35.7239 55.1839 36.0852C55.5521 36.8078 56.118 37.2044 56.8817 37.2749C57.1961 37.304 57.6019 37.1783 58.099 36.898C58.5968 36.6087 58.9671 36.4753 59.2096 36.4977C59.4522 36.5201 59.6999 36.6834 59.9527 36.9876C59.8673 37.913 59.2807 38.5248 58.193 38.8231C57.6545 38.9637 57.0798 39.0057 56.4689 38.9493C55.8579 38.8929 55.3484 38.719 54.9404 38.4277C54.5316 38.1453 54.2012 37.7976 53.9494 37.3847C53.6984 36.9629 53.4933 36.4365 53.334 35.8057C53.1748 35.1748 53.0601 34.5526 52.9899 33.9391C52.9385 33.3182 52.9134 32.6091 52.9145 31.8118C52.9294 30.4722 53.0054 29.0113 53.1424 27.4292L53.4742 24.1299C53.5713 23.0788 53.7126 22.2355 53.8981 21.6003C53.8715 21.2988 53.8711 21.0088 53.8968 20.7303C54.0014 19.5983 54.5066 18.7388 55.4125 18.1519C56.3193 17.5561 57.3926 17.3154 58.6324 17.4299C59.0726 17.4705 59.4923 17.6361 59.8913 17.9267C60.2912 18.2082 60.4725 18.5512 60.4351 18.9555C60.4169 19.1531 60.3264 19.2988 60.1637 19.3925C60.001 19.4862 59.7355 19.5161 59.3671 19.4821C59.0078 19.4489 58.7711 19.3138 58.657 19.0767L58.6558 19.0902L58.2784 19.0553L58.2847 18.988C57.2155 18.8893 56.4571 19.1545 56.0094 19.7837C55.5936 20.3614 55.3169 21.396 55.1792 22.8874L55.0846 24.7951ZM69.2741 40.1044C68.8069 40.0613 68.6016 39.7343 68.658 39.1233C68.9815 35.6194 69.2001 32.3686 69.3137 29.3708C68.8279 29.2353 68.3694 29.1477 67.9381 29.1079C67.5068 29.0681 67.1139 29.1043 66.7592 29.2165C66.6646 30.2407 66.5979 31.7976 66.559 33.8871C66.5201 35.9766 66.4518 37.5514 66.3539 38.6116C66.3373 38.7913 66.268 38.9525 66.1461 39.0953C66.0242 39.2381 65.8734 39.3012 65.6937 39.2846C65.1898 39.2471 64.967 37.6363 65.0254 34.4522C65.1066 30.1376 65.428 24.9391 65.9896 18.8567C66.0203 18.5242 66.1928 18.3726 66.5073 18.4016C66.678 18.4173 66.8576 18.4838 67.0462 18.6008C67.2355 18.7089 67.3657 18.8206 67.4366 18.9359C67.3131 19.586 67.2178 20.2749 67.1506 21.0026L66.8154 26.6937L66.6927 27.7289C66.6686 27.9894 66.6646 28.2292 66.6806 28.4481L69.3811 28.4936L70.1095 19.4273L70.1767 18.6996C70.8775 18.7643 71.2662 19.1173 71.3429 19.7587C71.3776 20.07 71.3373 20.85 71.222 22.0988C71.1067 23.3477 70.9473 26.006 70.7439 30.0737C70.5503 34.1333 70.3606 37.1693 70.1748 39.1818C70.1524 39.4244 70.0553 39.642 69.8835 39.8345C69.7109 40.036 69.5077 40.126 69.2741 40.1044ZM75.8118 30.0931L75.1269 30.0027C74.8574 29.9778 74.6625 30.0277 74.5423 30.1526L73.7559 38.6698C74.7042 38.703 75.2188 38.7233 75.2997 38.7308C76.3509 38.8278 76.854 39.1189 76.8093 39.6041L76.8005 39.6984C76.6515 39.9384 76.4181 40.1116 76.1002 40.2182C75.7822 40.3248 75.5057 40.3762 75.2704 40.3726C75.0352 40.369 74.7334 40.3502 74.365 40.3162L73.5025 40.2366C72.8197 40.1736 72.4098 39.9998 72.273 39.7153C72.2127 39.5829 72.1922 39.4134 72.2112 39.2067L73.6919 23.1696C73.721 22.8551 73.7012 22.3821 73.6327 21.7506C73.5641 21.119 73.5448 20.6415 73.5746 20.3181L73.5833 20.2238C73.9353 19.7489 74.1942 19.4466 74.3602 19.3169L76.4311 19.2635C76.7096 19.2892 76.9802 19.4002 77.243 19.5967C77.5156 19.7849 77.6394 20.0138 77.6145 20.2834C77.5639 20.8314 77.1208 21.0669 76.2853 20.9897L75.4927 20.8894C75.3579 20.8769 75.2586 20.8723 75.1949 20.8755L74.99 25.4505C74.956 25.8188 74.8837 26.3558 74.7733 27.0614C74.6637 27.7581 74.5939 28.2681 74.5641 28.5916C74.6645 28.5827 74.8022 28.5637 74.9771 28.5345C75.3635 28.4706 75.6601 28.4481 75.8667 28.4672C76.0824 28.4871 76.264 28.5809 76.4116 28.7485C76.5682 28.917 76.6366 29.1091 76.6166 29.3247C76.5967 29.5403 76.5115 29.7273 76.361 29.8856C76.2105 30.0438 76.0274 30.113 75.8118 30.0931ZM84.2056 41.0481C83.6396 40.9959 83.3786 40.7316 83.4225 40.2555L83.7548 36.6572C83.5108 36.4535 83.0532 36.2572 82.382 36.0683C81.7198 35.8804 81.1253 35.7439 80.5986 35.659C80.38 35.9651 80.1797 36.4177 79.9975 37.0171C79.8243 37.6172 79.6417 38.221 79.4497 38.8285C79.2666 39.4368 79.0507 39.9107 78.8019 40.2502C78.0832 40.1838 77.6959 39.9623 77.64 39.5857C77.9248 39.2495 78.5032 37.4499 79.3753 34.1869C80.2474 30.924 80.9494 28.3747 81.4814 26.5391C82.0231 24.6954 82.564 23.1551 83.104 21.9183C83.6441 20.6815 84.1073 20.0809 84.4936 20.1166C84.88 20.1523 85.169 20.2605 85.3607 20.4413C85.3001 21.0972 85.316 22.8882 85.4083 25.8143C85.5005 28.7405 85.5073 30.6303 85.4285 31.4839C85.3505 32.3284 85.3146 33.7477 85.3208 35.7417C85.3368 37.7275 85.2991 39.2145 85.2079 40.2028C85.1507 40.8228 84.8166 41.1045 84.2056 41.0481ZM83.8778 31.9387C83.8671 30.2886 83.8623 28.7206 83.8636 27.2347C83.8747 25.7407 83.8943 24.8409 83.9225 24.5355C83.9516 24.221 83.9727 24.0417 83.9858 23.9977C83.6709 24.2676 83.1009 25.8777 82.2758 28.8279C81.4597 31.7789 80.9967 33.6525 80.887 34.4488C81.6316 34.726 82.2599 34.8882 82.772 34.9355C83.2931 34.9836 83.664 34.9907 83.8846 34.9567C83.8916 34.5858 83.8894 33.5798 83.8778 31.9387ZM89.1722 37.3069C89.1722 37.3069 89.0909 38.1874 88.9283 39.9483C89.6616 39.563 90.3212 38.9941 90.9071 38.2418C91.4939 37.4805 91.966 36.6361 92.3234 35.7086C92.995 33.9312 93.4145 32.1351 93.5821 30.3203C93.7745 28.2359 93.6658 26.5677 93.2558 25.3157C92.8402 24.0269 92.2598 23.1487 91.5147 22.6812C91.0528 22.3849 90.5159 22.213 89.9041 22.1656L89.9017 22.1925C89.7482 23.8546 89.625 26.3668 89.532 29.7289C89.4481 33.0918 89.3281 35.6178 89.1722 37.3069ZM94.8053 31.7924L94.8192 32.3781C94.7079 33.6816 94.2201 35.186 93.3559 36.8913C92.3787 38.8398 91.312 40.1865 90.1559 40.9315C89.5001 41.3603 88.8484 41.5493 88.2007 41.4985C87.8593 41.467 87.5564 41.362 87.292 41.1836C87.0284 40.9961 86.9111 40.7452 86.9402 40.4307C87.3834 40.0458 87.6855 38.9818 87.8465 37.2389C87.941 36.2146 87.9963 34.6839 88.0122 32.6466C88.0282 30.6094 88.0826 29.0876 88.1755 28.0814L88.5351 25.0701C88.5799 24.5849 88.5367 23.924 88.4055 23.0873C88.2842 22.2425 88.2393 21.6494 88.2708 21.308C88.3297 20.6701 89.0644 20.4163 90.475 20.5465L90.8927 20.5851C92.7705 20.7585 94.0346 21.9353 94.685 24.1156C95.1428 25.6348 95.2526 27.6837 95.0145 30.2622L94.8963 31.5425C94.8439 31.6192 94.8136 31.7025 94.8053 31.7924ZM98.2949 31.8291L98.241 32.7076L98.2298 32.8289C98.154 34.4347 97.9685 36.8369 97.6732 40.0354L97.6085 40.7361L99.7108 40.9302C100.081 41.2363 100.255 41.5106 100.233 41.7532C100.21 41.9957 100.124 42.1917 99.9747 42.3409C99.8259 42.4812 99.6796 42.5447 99.5358 42.5315C99.3921 42.5182 99.2287 42.4714 99.0459 42.3911C98.8898 42.4129 98.713 42.4147 98.5153 42.3965L97.6296 42.2739C97.4202 42.4811 97.1717 42.5714 96.8842 42.5449C96.6057 42.5192 96.3759 42.4074 96.1948 42.2094C96.0219 42.0213 95.9463 41.8104 95.9678 41.5768L96.255 40.3801C96.4483 38.2868 96.6435 35.1425 96.8405 30.9473C97.0474 26.744 97.2474 23.5956 97.4407 21.5023C97.4565 21.3316 97.5363 21.203 97.6802 21.1166C97.8249 21.0213 97.9961 20.9827 98.1938 21.0009C98.4004 21.02 98.5775 21.1134 98.7252 21.2811C98.8818 21.4496 98.9497 21.6461 98.9289 21.8707L98.2949 31.8291ZM106.402 23.5121L105.918 23.4539C105.739 23.4373 105.6 23.4652 105.503 23.5378C105.415 23.6022 105.361 23.7467 105.34 23.9713C105.175 25.7682 105.038 28.4694 104.932 32.0749C104.826 35.6805 104.69 38.3817 104.524 40.1786L104.425 41.2432C104.617 41.2337 104.806 41.2376 104.995 41.255C105.759 41.3255 106.111 41.6842 106.051 42.3311L106.036 42.4928L105.305 42.9011L103.426 42.7955C101.836 42.6487 101.066 42.3012 101.116 41.7532C101.157 41.3129 101.456 41.1185 102.013 41.17L102.589 41.2639C102.858 41.2888 103.013 41.0856 103.053 40.6544C103.184 39.2348 103.295 37.1021 103.385 34.2563C103.477 31.4014 103.588 29.2642 103.719 27.8447L104.033 25.0331C104.088 24.4401 104.112 23.9259 104.107 23.4905C103.857 23.549 103.638 23.5695 103.449 23.5521C103.018 23.5123 102.823 23.2722 102.863 22.832C102.884 22.6074 103.041 22.4271 103.335 22.2911C103.629 22.1461 103.986 22.0567 104.406 22.023C105.191 21.9596 105.768 21.9449 106.136 21.9789C106.513 22.0137 106.776 22.115 106.923 22.2826C107.072 22.4413 107.137 22.624 107.118 22.8306C107.099 23.0283 107.02 23.1977 106.88 23.3388C106.75 23.4718 106.591 23.5295 106.402 23.5121ZM108.611 28.7314L109.268 23.6816L109.284 23.5064C109.369 22.59 109.613 22.1504 110.018 22.1878C110.386 22.2218 110.801 23.1209 111.264 24.8852C112.109 28.0893 112.994 33.3312 113.916 40.6108L113.931 40.7481L114.927 31.1357L115.681 22.9689C115.831 22.5206 116.153 22.3193 116.647 22.365C117.142 22.4106 117.355 22.7928 117.289 23.5115L117.274 23.6732C117.146 23.8879 117.067 24.1524 117.038 24.4669L115.921 34.6525L115.142 43.0889C115.116 43.3674 115.014 43.6344 114.837 43.8898C114.659 44.1453 114.458 44.2626 114.233 44.2419C113.847 44.2062 113.267 42.2453 112.493 38.3592C111.72 34.464 110.987 30.2872 110.293 25.8285L109.457 34.8848C109.376 35.7653 109.317 37.0828 109.282 38.8374C109.256 40.5928 109.202 41.9108 109.121 42.7913C109.105 42.962 108.989 43.0962 108.771 43.1939C108.555 43.2826 108.285 43.3121 107.961 43.2822C107.647 43.2532 107.503 43.0949 107.529 42.8074L107.847 40.8388C107.935 39.8864 108.019 38.3357 108.1 36.1866C108.18 34.0376 108.243 32.7249 108.287 32.2488L108.611 28.7314ZM121.201 34.2838L120.516 34.1934C120.247 34.1685 120.052 34.2185 119.932 34.3433L119.145 42.8605C120.093 42.8937 120.608 42.914 120.689 42.9215C121.74 43.0185 122.243 43.3096 122.199 43.7948L122.19 43.8891C122.041 44.1291 121.807 44.3023 121.489 44.4089C121.172 44.5155 120.895 44.567 120.66 44.5634C120.424 44.5598 120.123 44.541 119.754 44.5069L118.892 44.4273C118.209 44.3643 117.799 44.1905 117.662 43.906C117.602 43.7736 117.581 43.6041 117.601 43.3975L119.081 27.3603C119.11 27.0458 119.09 26.5728 119.022 25.9413C118.953 25.3097 118.934 24.8323 118.964 24.5088L118.973 24.4145C119.325 23.9396 119.583 23.6373 119.75 23.5076L121.82 23.4542C122.099 23.4799 122.37 23.591 122.632 23.7874C122.905 23.9756 123.029 24.2045 123.004 24.4741C122.953 25.0221 122.51 25.2576 121.675 25.1804L120.882 25.0801C120.747 25.0676 120.648 25.063 120.584 25.0662L120.379 29.6412C120.345 30.0095 120.273 30.5465 120.163 31.2521C120.053 31.9488 119.983 32.4588 119.953 32.7823C120.054 32.7734 120.191 32.7544 120.366 32.7253C120.753 32.6613 121.049 32.6388 121.256 32.6579C121.472 32.6778 121.653 32.7716 121.801 32.9392C121.957 33.1077 122.026 33.2998 122.006 33.5154C121.986 33.7311 121.901 33.918 121.75 34.0763C121.6 34.2345 121.417 34.3037 121.201 34.2838Z" fill="black"/>
<path d="M47.4862 55.4351C39.1914 68.3505 26.7227 78.1942 14.8745 87.71C11.544 90.385 7.96661 93.8023 3.8125 95.187" stroke="black" stroke-width="2.16543" stroke-linecap="round"/>
<path d="M6.84291 85.3828C6.08933 88.8816 5.14548 92.0518 3.18858 95.0089C2.85398 95.5145 1.14106 97.2693 2.54486 97.0687C7.12486 96.4145 11.7247 96.1956 16.2907 95.3654" stroke="black" stroke-width="2.16543" stroke-linecap="round"/>
</svg>
