<svg width="56" height="55" viewBox="0 0 56 55" fill="none" xmlns="http://www.w3.org/2000/svg">
<circle cx="28" cy="27.5" r="22.3438" stroke="#3F3F46" stroke-width="1.14584"/>
<path fill-rule="evenodd" clip-rule="evenodd" d="M22.0128 16.367C22.0128 17.7936 20.9265 18.9482 19.2277 18.9482C17.5951 18.9482 16.5088 17.7936 16.5424 16.367C16.5088 14.871 17.5951 13.75 19.2602 13.75C20.9264 13.75 21.9802 14.871 22.0128 16.367ZM16.679 37.6052V20.9873H21.8436V37.6041H16.679V37.6052Z" fill="#3F3F46"/>
<path fill-rule="evenodd" clip-rule="evenodd" d="M25.9831 26.2906C25.9831 24.2178 25.9148 22.4507 25.8465 20.9894H30.3324L30.5709 23.266H30.6728C31.3525 22.2123 33.0513 20.6165 35.8038 20.6165C39.2013 20.6165 41.75 22.8594 41.75 27.7508V37.6073H36.5854V28.398C36.5854 26.2559 35.8385 24.7956 33.9695 24.7956C32.5418 24.7956 31.6929 25.781 31.3536 26.7318C31.217 27.0722 31.1498 27.547 31.1498 28.024V37.6073H25.9852V26.2906H25.9831Z" fill="#3F3F46"/>
</svg>
