<svg width="112" height="78" viewBox="0 0 112 78" fill="none" xmlns="http://www.w3.org/2000/svg">
<path d="M86.2205 29.1783L86.1176 17.5197C86.1176 16.2161 86.1323 14.9175 86.1617 13.6237L86.9997 13.1533C87.5976 13.1925 88.2788 14.7901 89.0433 17.9461C89.6607 20.5238 90.1606 22.8418 90.5429 24.9001C90.9251 26.9485 91.1358 28.061 91.175 28.2374C91.3123 27.5905 91.5671 26.434 91.9395 24.7678C92.312 23.1015 92.5913 21.8078 92.7775 20.8865C93.3264 18.1911 93.6646 15.7947 93.792 13.6972V13.5208C93.8312 13.266 93.9537 13.0601 94.1595 12.9033C94.3654 12.7465 94.581 12.6681 94.8064 12.6681C95.0318 12.6681 95.2132 12.7514 95.3504 12.918C95.4974 13.0748 95.5709 13.2464 95.5709 13.4326C95.5709 15.8339 95.6591 19.431 95.8355 24.2238C96.0218 29.0166 96.1149 32.6137 96.1149 35.015C96.1149 35.4952 95.9875 35.9118 95.7326 36.2646C95.4778 36.6175 95.2328 36.7939 94.9975 36.7939C94.5075 36.7939 94.2624 36.397 94.2624 35.603L94.1448 22.93V21.401C94.0076 22.1753 93.6989 23.5328 93.2186 25.4734C92.7383 27.4043 92.4296 28.8843 92.2924 29.9134V30.1045C92.2728 30.183 92.2434 30.3692 92.2042 30.6632C92.165 30.9572 92.1209 31.2023 92.0719 31.3983C92.0327 31.5845 91.9689 31.7953 91.8807 32.0305C91.6945 32.5009 91.3858 32.7362 90.9545 32.7362C90.239 32.7362 89.8813 31.8002 89.8813 29.9281C89.8813 28.0757 89.4304 25.4832 88.5287 22.1508C88.0778 20.4846 87.7887 19.3575 87.6613 18.7694C87.6221 20.3768 87.6025 21.5872 87.6025 22.4007L87.8524 34.7797C87.8524 35.211 87.7005 35.5883 87.3967 35.9118C86.8772 35.9118 86.5243 35.7452 86.3381 35.4119C86.1617 35.0787 86.0735 34.6278 86.0735 34.0593L86.2205 29.1783ZM101.422 24.9736L100.672 24.9442C100.378 24.9442 100.173 25.0177 100.055 25.1647V34.4563C101.084 34.3975 101.643 34.3681 101.731 34.3681C102.878 34.3681 103.451 34.6327 103.451 35.162V35.2649C103.314 35.5393 103.079 35.7501 102.745 35.8971C102.412 36.0441 102.118 36.1274 101.863 36.147C101.608 36.1666 101.28 36.1764 100.878 36.1764H99.9374C99.1925 36.1764 98.7318 36.0294 98.5554 35.7354C98.477 35.5981 98.4378 35.4168 98.4378 35.1914V17.6961C98.4378 17.3531 98.3692 16.8434 98.2319 16.1671C98.0947 15.4909 98.0261 14.9763 98.0261 14.6234V14.5205C98.3594 13.9717 98.6093 13.6188 98.7759 13.462L101.011 13.1974C101.314 13.1974 101.618 13.2905 101.922 13.4767C102.236 13.6531 102.393 13.8883 102.393 14.1824C102.393 14.7803 101.937 15.0792 101.025 15.0792L100.158 15.0498C100.011 15.0498 99.9031 15.0547 99.8345 15.0645L100.07 20.0337C100.07 20.4356 100.045 21.0237 99.9962 21.798C99.9472 22.5625 99.9227 23.1211 99.9227 23.474C100.03 23.4544 100.178 23.4201 100.364 23.3711C100.775 23.2633 101.094 23.2094 101.319 23.2094C101.555 23.2094 101.76 23.2927 101.937 23.4593C102.123 23.6259 102.216 23.8268 102.216 24.0621C102.216 24.2973 102.143 24.508 101.996 24.6942C101.849 24.8805 101.657 24.9736 101.422 24.9736ZM108.053 34.9709C108.053 35.7354 107.646 36.1176 106.833 36.1176C106.548 36.1176 106.298 36.0049 106.083 35.7795C105.877 35.5442 105.774 35.2845 105.774 35.0003C105.774 34.716 105.897 34.4514 106.142 34.2064C106.387 33.9515 106.646 33.8241 106.921 33.8241C107.205 33.8241 107.465 33.9564 107.7 34.2211C107.935 34.4759 108.053 34.7258 108.053 34.9709ZM105.627 18.3136C105.059 18.3038 104.774 17.652 104.774 16.3583C104.774 15.6526 104.828 15.1086 104.936 14.7264C105.044 14.3343 105.259 13.9913 105.583 13.6972C105.906 13.4032 106.308 13.2562 106.788 13.2562C107.269 13.2562 107.671 13.3493 107.994 13.5355C108.327 13.7119 108.582 13.9276 108.759 14.1824C108.935 14.4372 109.072 14.7705 109.17 15.1821C109.327 15.78 109.405 16.569 109.405 17.5491C109.405 18.5194 109.307 19.5192 109.111 20.5483C108.935 21.5774 108.729 22.4792 108.494 23.2535C107.886 25.3117 107.577 27.7669 107.568 30.6191C107.568 31.5894 107.573 32.2608 107.582 32.6333C107.23 32.6333 107.024 32.648 106.965 32.6774C106.916 32.7068 106.872 32.7215 106.833 32.7215C106.46 32.7215 106.215 32.496 106.097 32.0452C106.097 29.8301 106.377 27.3063 106.935 24.4737C107.504 21.6411 107.788 19.3084 107.788 17.4756C107.788 15.6428 107.489 14.7264 106.891 14.7264C106.509 14.7264 106.318 15.1723 106.318 16.0642C106.318 16.2211 106.387 16.765 106.524 17.6961C106.524 17.7844 106.401 17.9118 106.156 18.0784C105.911 18.2352 105.735 18.3136 105.627 18.3136Z" fill="black"/>
<path d="M65.8881 34.622C49.2323 35.4104 33.1995 41.7939 17.812 47.7717C13.4866 49.452 8.32859 50.9613 4.76961 54.1173" stroke="black" stroke-width="2.3523" stroke-linecap="round"/>
<path d="M15.6392 56.5914C11.9384 55.4 8.44337 54.5661 4.59855 54.8009C3.94116 54.8411 1.35992 55.4994 2.31105 54.2877C5.4142 50.3344 8.11852 46.1259 11.3796 42.2813" stroke="black" stroke-width="2.3523" stroke-linecap="round"/>
</svg>
