<svg width="56" height="55" viewBox="0 0 56 55" fill="none" xmlns="http://www.w3.org/2000/svg">
<circle cx="28" cy="27.5" r="22.3438" stroke="#3F3F46" stroke-width="1.14584"/>
<path fill-rule="evenodd" clip-rule="evenodd" d="M41.75 18.6868C40.739 19.136 39.651 19.4384 38.5098 19.575C39.6748 18.8766 40.5694 17.7711 40.9902 16.454C39.9012 17.1011 38.6922 17.5695 37.4081 17.8234C36.3787 16.7271 34.9112 16.0415 33.2898 16.0415C30.1742 16.0415 27.648 18.5677 27.648 21.6832C27.648 22.125 27.6985 22.5558 27.7947 22.9692C23.1053 22.7346 18.9485 20.488 16.1657 17.0745C15.6799 17.9077 15.4022 18.8766 15.4022 19.9105C15.4022 21.8675 16.3967 23.5944 17.9118 24.6063C16.9861 24.577 16.1171 24.3231 15.3554 23.9005V23.9711C15.3554 26.7053 17.3014 28.9849 19.8807 29.5046C19.4077 29.633 18.9091 29.7026 18.3949 29.7026C18.031 29.7026 17.6772 29.6669 17.3325 29.6009C18.0503 31.842 20.1346 33.4735 22.603 33.5194C20.6727 35.0318 18.24 35.9346 15.5965 35.9346C15.14 35.9346 14.6909 35.908 14.25 35.8549C16.7468 37.4553 19.7121 38.3902 22.8982 38.3902C33.2751 38.3902 38.9498 29.7934 38.9498 22.3386C38.9498 22.0939 38.9452 21.85 38.9333 21.609C40.0369 20.8115 40.9938 19.8179 41.75 18.6868Z" fill="#3F3F46"/>
</svg>
